<svg width="542" height="200" viewBox="0 0 542 200" fill="none" xmlns="http://www.w3.org/2000/svg">
<path fill-rule="evenodd" clip-rule="evenodd" d="M502.246 24.9368L502.727 23.4381C502.747 22.9785 503.147 22.2592 503.247 22.0794C503.234 22.0335 503.283 21.9212 503.346 21.7775C503.475 21.4827 503.662 21.0558 503.488 20.8004C503.728 20.5807 504.028 20.0412 504.248 19.2219L505.369 16.7843L505.789 15.6053C506.39 13.4671 507.471 10.8895 509.032 7.87254C509.472 7.2932 509.672 6.93356 509.692 6.47388C509.731 6.38078 509.772 6.28556 509.813 6.18811C510.151 5.38622 510.554 4.43275 510.893 3.25679C511.094 2.89716 510.974 2.47737 510.574 2.13735C509.815 1.59725 509.136 1.337 508.456 1.07676C507.577 1.17615 506.898 0.915911 506.638 0.536006C506.458 0.435964 506.178 0.515726 505.938 0.735428C505.798 0.775315 505.558 0.995023 505.458 1.17484L504.177 4.11207L500.575 11.6448L498.333 17.5794L497.252 20.157C495.61 25.0127 494.809 28.5698 494.847 30.8283C494.807 31.7476 495.006 32.4473 495.346 33.1071C497.602 36.2463 499.66 37.6267 501.759 37.0284C503.958 36.2503 505.978 34.3128 507.878 30.8963L509.899 27.8996L509.989 27.7732C510.487 27.0752 510.878 26.5274 510.859 25.9615C510.882 25.921 510.911 25.8786 510.944 25.8319C511.056 25.6708 511.204 25.4586 511.22 25.1023C511.263 25.0252 511.383 24.9262 511.503 24.8271C511.663 24.6951 511.823 24.563 511.8 24.483L513.601 21.2463C513.98 20.9867 515.861 18.0299 515.881 17.5702C516.161 17.4905 516.401 17.2707 516.421 16.8111C516.381 16.6711 516.342 16.5312 516.442 16.3514L518.862 12.6354C518.822 12.4955 519.123 11.956 519.623 11.0569L520.043 10.9373L520.122 11.2171L520.3 14.495L520.16 15.5942C520.171 15.7319 520.185 15.8794 520.199 16.0371L520.2 16.0387V16.0392V16.0398V16.0404V16.0412V16.042C520.264 16.7302 520.347 17.6127 520.298 18.7322L519.671 29.8043L519.289 33.2418C519.281 33.428 519.25 33.6208 519.217 33.8241C519.169 34.1227 519.117 34.4439 519.128 34.8006C518.948 35.7598 518.828 36.3993 518.867 36.5393C518.847 36.999 518.627 37.8183 518.527 37.9981C518.548 38.0738 518.505 38.3898 518.458 38.7366C518.418 39.0303 518.375 39.3461 518.366 39.5569C517.904 43.7738 516.822 47.4107 515.322 50.1079C514.701 51.6465 514.101 52.7254 513.521 53.3446L512.7 55.2428C511.4 57.5805 509.799 60.4575 508.258 64.0741C506.716 67.6908 505.576 70.5881 505.115 72.6864C505.034 73.4658 505.054 74.0654 505.313 74.4453C505.473 75.005 505.732 75.3849 506.272 75.6851L507.291 76.6051C507.91 77.1851 508.589 77.4453 509.289 77.2459C509.709 77.1262 509.949 76.9065 510.249 76.3671C510.629 76.1075 511.129 75.2084 511.429 74.669C511.809 74.4094 512.009 74.0497 512.109 73.8699C512.269 73.3704 512.469 73.0107 512.809 72.6112L513.109 72.0717L513.349 71.852C513.57 71.0327 514.29 69.3143 515.691 66.7969C516.391 65.5382 517.472 62.9606 518.873 59.3839C520.275 55.8071 521.076 53.3093 521.216 52.2101C521.176 52.0702 521.917 49.8921 522.057 49.8522C522.08 49.8118 522.1 49.7643 522.123 49.7121C522.2 49.5317 522.303 49.2943 522.597 49.0931L522.918 48.094L524.478 45.077C525.179 43.8183 525.579 43.099 525.599 42.6393L525.839 42.4196C525.979 42.3797 526.119 42.3398 526.079 42.1999C526.08 41.4614 526.663 40.7038 527.152 40.0689C527.364 39.7932 527.559 39.5406 527.68 39.3228L528.72 37.6646C528.64 37.3847 528.74 37.2049 529.02 37.1251L529.46 36.5458C529.621 36.0462 529.821 35.6866 530 35.7866L530.561 34.5678L531.341 33.589C531.411 33.569 531.436 33.5241 531.461 33.4791C531.486 33.4342 531.511 33.3892 531.581 33.3693C531.681 33.1894 531.781 33.0096 531.921 32.9697L532.161 32.75C532.221 32.4303 532.321 32.2505 532.601 32.1707C532.981 31.9111 533.221 31.6914 533.421 31.3318C534.641 29.7736 536.301 28.6953 538.22 27.997C538.36 27.9571 538.679 28.0173 538.859 28.1173C538.899 28.2572 539.079 28.3573 539.219 28.3174L540.298 28.9176C540.398 28.7378 540.818 28.6182 541.237 28.4985C541.377 28.4586 541.477 28.2788 541.577 28.099C541.978 27.3797 541.079 25.8202 539.98 25.6796C539.658 25.6654 539.384 25.5627 539.077 25.4473C538.947 25.3983 538.81 25.3469 538.661 25.2991C537.402 24.5988 535.704 24.4778 533.885 24.9963C532.345 25.4351 528.646 27.8512 527.726 28.8699L525.386 31.8065C525.286 31.9863 525.286 31.9863 525.146 32.0262C525.006 32.0661 525.106 31.8863 525.546 31.3069C525.366 31.2069 525.366 31.2069 525.327 31.0669L525.408 28.1689L525.65 25.8307C525.7 25.7408 525.645 25.416 525.59 25.0913C525.535 24.7664 525.481 24.4415 525.531 24.3516L525.852 21.2339C526.253 19.4553 526.414 17.8965 526.155 16.4573C526.142 16.2914 526.122 16.1044 526.101 15.8985L526.101 15.8975C526.027 15.1857 525.93 14.2486 525.977 13.1794C526.12 8.90238 525.902 5.48455 525.144 2.82588C525.024 2.40609 524.305 2.00591 523.206 1.86533C522.746 1.84506 522.427 1.78491 522.067 1.58482C521.388 1.32458 520.608 1.24415 519.629 1.52336L518.509 1.84246L518.309 2.20208C518.005 2.68033 517.715 3.1544 517.43 3.62227L517.428 3.62562L517.427 3.62669C516.831 4.6036 516.25 5.55339 515.588 6.45754L512.807 11.0327L510.967 14.1295C510.106 15.8878 509.206 17.5061 508.266 18.9846C508.149 19.1645 508.037 19.3376 507.928 19.504C507.255 20.5384 506.749 21.3163 506.525 21.9015L505.424 23.8795C504.704 24.5386 503.564 26.3767 501.963 29.2537C501.763 29.6134 501.383 29.873 501.004 30.1326L501.044 29.2132C501.246 28.6865 501.303 28.2918 501.347 27.992C501.353 27.9492 501.359 27.9083 501.365 27.8693C501.372 27.8291 501.378 27.7908 501.385 27.7544C501.396 27.495 501.529 27.1531 501.635 26.8791C501.716 26.6675 501.783 26.4965 501.765 26.4355L502.246 24.9368ZM490.575 22.3631L491.114 22.6632L491.434 22.7233C491.614 22.8234 491.754 22.7835 491.854 22.6037L492.094 22.384C492.274 22.484 492.554 22.4043 492.614 22.0845C492.804 21.9547 493.024 21.665 493.244 21.3754C493.464 21.0857 493.684 20.796 493.874 20.6662C494.114 20.4465 494.314 20.0869 494.334 19.6272L494.322 19.4731L494.308 19.2977L494.308 19.2966L494.308 19.2956L494.308 19.2944L494.308 19.2935C494.239 18.3908 494.111 16.7218 493.936 16.1094C493.917 15.5098 493.757 14.95 493.458 14.4302C492.58 12.411 491.061 11.3308 488.903 11.1896C488.403 11.0294 487.664 11.0889 486.824 11.3282L485.705 11.6473C482.785 14.1438 480.525 17.3602 478.744 21.1965L477.023 24.7131L476.743 24.7929C476.563 24.6928 476.523 24.5529 476.483 24.413L476.804 23.4139L477.164 21.4954C477.264 21.3156 477.264 21.3156 477.225 21.1756C477.045 21.0756 477.105 20.7558 477.165 20.4361L477.325 19.9365L477.725 19.2173C477.666 18.4777 478.007 17.0189 478.647 15.0207C479.248 12.8825 479.849 11.8036 480.368 11.5041C480.548 11.6041 480.888 11.2046 481.188 10.6652C481.328 10.6253 481.249 10.3454 481.069 10.2454C480.29 9.10566 479.711 8.66559 479.111 8.68521C478.651 8.66494 478.192 8.64467 477.512 8.38443C477.332 8.28439 477.153 8.18435 477.013 8.22423L475.194 8.74276C474.354 8.98208 473.874 9.42149 473.574 9.96094C473.274 10.5004 473.014 11.1798 472.893 11.8193L471.892 15.736L470.85 19.5128L470.93 19.7927L470.569 21.7111C470.582 22.123 470.426 22.9402 470.242 23.6318C469.772 24.1437 469.341 24.7164 468.996 25.3367C468.834 25.5504 468.579 26.0168 468.28 26.5626L468.28 26.5628C467.77 27.4968 467.133 28.6631 466.615 29.1926L464.015 32.8086C462.874 34.6466 462.274 35.7255 462.214 36.0453L460.254 38.7223C457.993 41.9387 456.053 44.156 454.513 45.654C454.413 45.8339 454.053 45.6338 454.014 45.4938C453.754 45.1139 453.615 44.0945 453.416 42.3356L453.257 40.7166C453.802 32.5424 454.785 26.9668 456.205 23.9897C456.445 23.77 456.545 23.5902 456.466 23.3103C456.186 22.3308 455.767 21.3912 455.148 20.8112C454.369 19.6715 453.19 19.251 451.371 19.7696C451.147 19.8334 451.023 19.8205 450.873 19.8051C450.649 19.7819 450.368 19.753 449.612 19.9683C449.092 20.2678 448.892 20.6274 449.052 21.1872C449.032 21.6468 448.932 21.8267 448.512 21.9463C448.372 21.9862 448.372 21.9862 448.192 21.8862L445.554 22.1843C440.896 23.3607 436.597 26.8557 432.616 32.5294C428.595 38.0632 426.334 43.3982 425.611 48.2944C425.47 49.3936 425.65 50.5529 426.508 51.9725C426.545 52.1011 426.655 52.2372 426.79 52.3682C426.692 52.5255 426.559 52.5634 426.426 52.6012L426.146 52.681C425.827 52.6208 425.187 52.5005 424.907 52.5803C424.767 52.6202 424.627 52.6601 424.667 52.8C424.527 52.8399 424.387 52.8798 424.347 52.7398C423.848 52.5796 423.448 52.2396 423.189 51.8597C422.69 50.6402 422.431 49.201 422.272 47.582L422.266 47.5053L422.252 47.3441L422.252 47.3361V47.3356C422.193 46.647 422.124 45.8283 422.214 44.7239C422.187 43.6066 422.168 42.6364 422.151 41.8081L422.151 41.7741L422.15 41.7638C422.108 39.6124 422.084 38.4304 421.998 38.1282C421.679 37.0088 421.3 36.2091 420.96 35.5493C419.502 34.1494 418.423 33.5491 417.684 33.6086L414.966 33.6269C414.699 33.7028 414.506 33.8189 414.364 33.9038C414.282 33.9529 414.217 33.9916 414.166 34.0062C414.026 34.0461 413.886 34.0859 413.846 33.946C413.007 34.1853 411.707 35.4637 410.047 37.6012C408.386 39.7387 407.206 41.4369 406.506 42.6956L406.226 42.7754C406.201 42.6889 406.215 42.5337 406.234 42.3193C406.245 42.1867 406.259 42.0316 406.266 41.856L406.927 39.3981C407.67 35.1014 408.551 31.8242 409.472 29.7462C409.812 29.3466 409.732 29.0668 409.193 28.7666C409.027 28.4786 408.523 28.1474 408.063 27.8447C407.693 27.6011 407.351 27.3759 407.235 27.2065C406.893 27.3039 406.313 27.2687 405.861 27.2413C405.758 27.2351 405.661 27.2292 405.576 27.2254C405.296 27.3052 405.156 27.3451 404.976 27.2451L404.277 27.4445C403.437 27.6838 402.857 28.303 402.637 29.1224L402.076 31.4005C401.776 31.9399 401.475 32.4794 401.455 32.939C401.315 34.0382 400.914 35.8168 400.313 37.955L398.89 44.1099C398.63 44.7893 398.369 46.528 398.388 47.1276C398.287 47.9202 398.019 49.2325 397.772 50.3299L397.635 50.5194L394.195 55.434C390.794 60.4885 388.633 63.5251 387.813 64.364C388.133 65.484 387.786 65.6724 387.042 66.0766C386.763 66.2279 386.429 66.4094 386.053 66.6814C385.789 66.7567 385.542 67.1305 385.282 67.5252C384.991 67.9665 384.683 68.4338 384.313 68.539L384.073 68.7587C383.973 68.9385 383.654 68.8784 383.454 68.1787C383.235 66.8795 383.397 64.2613 384.079 60.2845C384.761 56.3076 385.382 53.7097 386.082 52.451C386.182 52.2712 386.382 51.9115 386.402 51.4518C386.603 50.0329 387.024 48.854 387.524 47.9549L387.584 47.6352C387.504 47.3553 387.585 46.5759 387.965 45.257C388.325 44.3978 388.306 43.7982 387.727 43.3581L385.909 41.7581C384.75 40.878 383.331 40.6772 381.792 41.116C381.372 41.2356 380.992 41.4952 380.892 41.675L380.412 43.1737L378.568 50.5076C376.465 57.4617 375.683 62.6777 376.22 66.1556C376.379 67.7747 376.918 69.1341 377.876 70.3738C380.413 73.4333 383.55 74.3546 387.188 73.3176C387.476 73.2355 387.877 73.0499 388.404 72.8061C388.645 72.6946 388.913 72.571 389.208 72.4394C389.387 72.5395 389.527 72.4996 389.807 72.4198C390.094 72.3382 390.818 71.5683 391.401 70.9478C391.673 70.6588 391.914 70.4023 392.067 70.2627C392.714 69.702 393.396 68.9976 394.116 68.1349C394.123 68.1937 394.13 68.2522 394.138 68.3107C394.038 68.4905 394.118 68.7703 394.298 68.8704C395.856 70.0905 397.315 70.4312 398.574 70.0722C399.694 69.7531 400.474 68.7743 401.094 67.2357L402.657 61.0408C403.559 57.3039 404.46 54.6263 405.42 52.6882C405.459 52.6185 405.5 52.5406 405.544 52.4571C405.579 52.3904 405.615 52.3202 405.652 52.2479L405.652 52.2474L405.653 52.2469C405.93 51.7077 406.269 51.0493 406.561 50.8501C407.061 49.951 408.961 47.5938 412.121 43.8183C411.902 43.5783 414.301 41.3813 415.541 40.4227C415.681 40.3828 415.721 40.5227 415.761 40.6627C415.62 41.7618 415.679 43.5607 415.757 45.9591C415.856 47.8978 416.195 49.6169 416.734 50.9763C418.111 54.215 420.008 56.0949 422.387 56.4761C423.206 56.6964 423.985 56.7769 424.965 56.4977C425.376 56.3804 426.23 56.3822 426.892 56.3836C427.131 56.3841 427.344 56.3845 427.503 56.3793C427.963 56.3996 428.243 56.3198 428.303 56.0001C428.323 55.5404 428.463 55.5005 428.923 55.5208C429.242 55.5809 429.342 55.4011 429.403 55.0814C429.422 54.8921 429.433 54.7053 429.437 54.5228C430.999 55.2459 433.033 55.4082 434.621 54.9555C438.119 53.9583 442.119 49.9435 446.58 42.7711L447.059 44.4502C448.216 48.5082 453.17 52.0889 457.088 50.972C458.487 50.5732 460.107 49.355 462.047 47.1377C463.491 45.1658 465.337 42.587 467.528 39.417C467.407 41.5783 467.486 43.3563 467.756 44.7539C468.076 45.8733 468.415 46.5331 468.735 46.5932C468.934 47.2929 469.373 47.7728 470.013 47.8932C470.552 48.1933 471.332 48.2737 472.171 48.0344L472.591 47.9147C472.871 47.8349 473.011 47.7951 473.191 47.8951L473.611 47.7755C474.698 46.112 474.243 45.3183 473.95 44.8092C473.818 44.5785 473.719 44.4062 473.813 44.238L475.215 39.602C475.538 38.7287 475.815 37.9406 476.058 37.2459C476.523 35.9216 476.868 34.9364 477.197 34.3467C477.497 33.8073 478.257 32.2288 479.198 29.6911C479.268 29.6712 479.293 29.6262 479.318 29.5812C479.343 29.5363 479.368 29.4913 479.438 29.4714C479.76 29.0188 480.153 28.0618 480.503 27.2103L480.504 27.2099C480.74 26.6334 480.958 26.1053 481.119 25.8149C481.235 25.6067 481.378 25.2555 481.535 24.8694C481.784 24.2554 482.07 23.5531 482.34 23.1974L485.141 18.1625C485.441 17.6231 487.301 16.1852 487.481 16.2853C488.2 16.6854 488.639 17.1654 488.759 17.5852L488.839 17.865C489.058 19.1643 489.337 20.1438 489.676 20.8036C489.856 20.9036 489.896 21.0435 489.936 21.1835C489.836 21.3633 490.096 21.7432 490.575 22.3631ZM432.765 50.0377C432.835 50.0177 432.895 49.9628 432.985 49.8804C433.075 49.798 433.195 49.6881 433.385 49.5584L434.265 48.3997C434.341 48.3779 434.697 47.9165 435.385 47.0252L435.386 47.0236L435.387 47.0223L435.388 47.0216L435.389 47.0197C435.962 46.2769 436.764 45.2368 437.826 43.9049C438.265 43.3263 439.164 41.7111 439.565 40.9905L439.566 40.9889L439.566 40.9882L439.566 40.988C440.786 39.4298 442.587 36.1931 444.868 31.4577C445.669 30.0191 446.269 28.9402 446.709 28.3609L446.589 27.9411C446.41 27.841 446.23 27.741 446.09 27.7809C445.9 28.1229 445.436 28.3603 445.097 28.5341C444.901 28.6344 444.747 28.7136 444.71 28.7794C444.33 29.039 443.23 29.9577 442.97 30.637C442.53 30.6176 442.108 31.148 441.388 32.0524L441.388 32.0526L441.29 32.175L441.09 32.5346C439.811 33.3533 438.09 35.8105 435.969 40.0464C433.948 44.1024 432.607 47.3594 432.186 49.5976C432.166 50.0573 432.345 50.1573 432.765 50.0377ZM388.341 18.975C389.461 18.6559 390.819 19.1764 392.317 20.7162C392.477 20.9495 392.515 21.5594 392.549 22.0927C392.57 22.428 392.59 22.7329 392.636 22.895C393.255 23.475 393.095 23.9745 392.515 24.5937C392.275 24.8134 392.035 25.0331 391.755 25.1129C391.335 25.2326 390.876 25.2123 390.416 25.192C388.517 25.4307 387.378 25.1502 386.819 24.2505C386.582 23.7904 386.297 23.4178 386.058 23.1056C385.954 22.97 385.859 22.8459 385.781 22.7308C385.561 22.4909 385.441 22.0711 385.522 21.2917L385.402 20.8719C385.322 20.592 385.422 20.4122 385.522 20.2324L386.502 19.9532C386.842 19.5536 387.362 19.2542 388.341 18.975ZM375.425 9.43697C375.335 9.51936 375.215 9.62922 375.025 9.75902C374.725 10.2985 374.064 12.7564 372.982 17.4526C372.915 17.7005 372.806 18.0435 372.687 18.4181L372.687 18.4186L372.687 18.419C372.413 19.282 372.087 20.3118 372.1 20.7298L370.979 24.2268C370.715 24.7013 370.551 25.5268 370.396 26.3063C370.257 27.0036 370.126 27.664 369.937 28.0036C369.766 28.4122 369.558 29.1736 369.355 29.9177L369.355 29.9184L369.355 29.9189L369.354 29.9196L369.354 29.9202L369.354 29.9208L369.354 29.9214L369.354 29.9221L369.354 29.9227C369.13 30.7412 368.913 31.538 368.756 31.8203C368.362 33.1214 367.861 35.2159 367.391 37.1814C367.024 38.7174 366.675 40.1746 366.411 41.1125C364.669 47.2074 363.428 50.2845 362.728 50.4839L362.408 50.4238C362.229 50.3237 362.089 50.3636 361.949 50.4035C360.55 49.7431 359.551 49.4227 358.732 49.2023C355.874 48.2013 352.976 48.1195 350.038 48.9571C347.939 49.5554 346.259 51.0934 344.998 53.5709C340.456 61.5227 338.294 67.7372 338.691 72.3144C338.571 72.9539 338.83 74.3931 339.508 76.7719C339.627 77.1917 340.426 77.8717 341.985 79.0918C343.543 80.312 344.622 80.9122 345.161 81.2124C346.779 82.1128 348.518 82.3737 350.057 81.9349C353.136 81.0574 356.416 77.7017 359.997 71.688L360.697 70.4292L361.257 70.2697C361.397 70.2298 361.437 70.3697 361.377 70.6895L361.594 74.1073C361.67 74.3733 361.818 74.6796 361.927 74.9038L361.927 74.9041C361.989 75.0335 362.039 75.1357 362.053 75.1869C362.832 76.3266 365.828 79.4063 366.848 79.2671C367.547 80.1269 369.026 80.0079 369.865 79.7686C371.125 79.4096 371.565 78.8303 371.286 77.8508C371.086 77.1511 371.066 76.5515 371.187 75.912C371.147 75.7721 371.307 75.2725 371.407 75.0927C371.427 74.633 370.808 74.053 370.388 74.1727C370.069 74.1125 369.649 74.2322 369.089 74.3917C368.07 74.531 368.03 74.3911 367.851 73.2318C367.412 71.6925 367.353 69.8937 367.894 68.0753C368.235 66.6165 368.435 65.1975 368.356 63.8584C368.316 63.7185 368.958 60.6609 369.579 58.0631L370.08 56.1047C370.623 50.0491 372.906 43.1951 376.748 35.4427C377.709 33.5047 378.349 31.5064 378.61 29.7677C379.431 27.8695 380.352 24.7322 381.094 20.4356L381.235 19.3364C381.701 18.4993 381.786 16.3281 381.812 15.6615V15.661V15.6604V15.6599V15.6593V15.6588V15.6582V15.6577V15.657C381.814 15.6096 381.816 15.57 381.817 15.5393C381.854 15.4723 381.822 15.2358 381.781 14.9304C381.711 14.4163 381.615 13.707 381.778 13.2808L381.699 13.0009C381.479 12.761 381.439 12.621 381.399 12.4811C380.421 10.6417 379.402 9.72175 378.383 9.86102C378.123 9.48112 376.065 9.16007 375.645 9.27973C375.575 9.29967 375.515 9.35459 375.425 9.43697ZM355.384 65.5892C352.543 70.4842 349.483 74.0799 346.423 76.6163C345.423 77.3551 345.024 75.9558 345.446 72.6583C345.707 70.9197 345.988 69.7806 346.248 69.1012C346.689 66.4033 347.79 63.366 349.651 59.8096C351.512 56.2531 353.592 53.9959 355.751 53.0779C356.041 52.911 356.635 52.9864 357.201 53.0582C357.65 53.1153 358.082 53.1701 358.33 53.0995C358.4 53.0795 358.559 53.1096 358.719 53.1397C358.879 53.1698 359.039 53.1998 359.109 53.1799C361.387 53.7409 361.567 53.841 360.366 55.9988L357.545 61.4933C357.519 61.5393 357.466 61.6625 357.394 61.8301C357.184 62.3175 356.812 63.1801 356.484 63.6112C356.044 64.1906 355.644 64.9098 355.384 65.5892ZM305.631 64.49L305.91 65.4695C307.625 71.4865 307.162 77.8219 304.739 84.7158C302.276 91.4697 299.156 95.3851 295.518 96.4222C293.699 96.9407 291.54 96.7995 289.003 95.8585C287.108 95.156 285.648 93.9078 284.698 92.1555C282.741 94.9725 281.079 97.2913 279.755 99.0996C277.815 101.317 276.195 102.535 274.796 102.934C270.878 104.051 265.924 100.47 264.767 96.4122L264.288 94.733C259.827 101.905 255.827 105.92 252.329 106.917C249.95 107.595 246.573 106.894 245.275 104.994C245.26 104.943 245.131 104.844 244.966 104.718L244.966 104.717C244.681 104.499 244.292 104.201 244.216 103.934C243.358 102.515 243.178 101.355 243.319 100.256C244.042 95.3601 246.303 90.0251 250.324 84.4913C254.305 78.8176 258.604 75.3226 263.262 74.1463L265.9 73.8481C266.004 73.9056 266.047 73.9301 266.093 73.9329C266.126 73.9349 266.16 73.9252 266.22 73.9082C266.64 73.7886 266.74 73.6088 266.76 73.1491C266.6 72.5894 266.801 72.2297 267.32 71.9303C268.076 71.7149 268.357 71.7438 268.581 71.767C268.731 71.7824 268.855 71.7953 269.079 71.7315C270.898 71.213 272.077 71.6334 272.856 72.7731C273.475 73.3531 273.894 74.2927 274.174 75.2722C274.253 75.5521 274.153 75.7319 273.913 75.9516C272.493 78.9287 271.51 84.5044 270.965 92.6785L271.124 94.2975C271.323 96.0564 271.462 97.0758 271.722 97.4557C271.762 97.5957 272.121 97.7958 272.221 97.616C273.761 96.1179 275.701 93.9006 277.962 90.6842L279.922 88.0072C279.982 87.6874 280.582 86.6085 281.723 84.7705L284.323 81.1545C284.369 81.1078 284.415 81.0561 284.463 81.0001C284.736 80.0722 285.067 79.1078 285.456 78.1083C287.478 72.993 289.279 69.7563 291.138 68.3184C291.238 68.1386 291.518 68.0589 291.938 67.9392L292.358 67.8195C289.38 67.4579 287.542 66.3176 286.944 64.2186C286.026 61.0002 287.628 57.0639 290.846 56.1465C292.665 55.628 293.904 55.7286 294.563 56.4486L294.643 56.7284L295.063 56.6088C295.762 56.4093 297.941 57.1502 301.637 58.9712L302.536 59.4714C304.915 58.7934 307.754 57.0763 311.053 54.3202L314.393 51.704C316.632 50.0065 318.572 48.8485 320.251 48.3699C322.07 47.8514 323.489 48.0521 324.548 49.112C324.656 49.081 325.054 49.424 325.788 50.0567C325.999 50.2386 326.238 50.4444 326.505 50.6722C326.585 50.952 326.625 51.092 326.485 51.1319L326.285 51.4915C326.225 51.8112 325.985 52.0309 325.805 51.9309C325.285 52.2304 324.685 53.3093 323.944 55.4874L323.882 55.7084L323.882 55.7092C323.317 57.7173 322.965 58.9703 323.022 59.684L322.762 60.3633C322.502 61.0427 322.481 61.5024 322.561 61.7822L322.1 63.8806L321.78 64.8797C321.64 64.9196 321.68 65.0595 322.039 65.2596L322.319 65.1798C325.021 59.2655 328.022 54.9302 331.141 52.0741L332.121 51.7949C333.1 51.5157 333.84 51.4562 334.339 51.6164C334.443 51.6739 334.487 51.6984 334.532 51.7012C334.565 51.7032 334.6 51.6935 334.659 51.6765C336.657 52.3173 338.036 53.4374 338.894 54.857L339.373 56.5362L339.631 60.0939C339.61 60.5536 339.41 60.9132 339.17 61.1329C338.98 61.2627 338.76 61.5524 338.54 61.842C338.32 62.1317 338.1 62.4214 337.91 62.5512C337.85 62.871 337.57 62.9507 337.39 62.8507L336.871 63.1502C336.411 63.1299 336.051 62.9298 335.871 62.8298C335.392 62.2099 335.133 61.83 335.233 61.6502L335.113 61.2304C334.594 60.4706 334.315 59.4911 334.135 58.3317L334.056 58.0519L333.436 57.4719C333.337 57.3267 333.244 57.202 333.164 57.0955L333.164 57.0952C333.035 56.9231 332.942 56.7985 332.917 56.7121C332.458 56.6918 330.738 58.0898 330.438 58.6292L330.173 59.1536L330.155 59.189L330.155 59.1903C329.135 61.2136 328.352 62.7665 327.637 63.6641C327.367 64.0195 327.081 64.7207 326.832 65.3344L326.831 65.3358L326.831 65.3363C326.674 65.7223 326.532 66.0734 326.416 66.2816C326.227 66.6209 325.931 67.2939 325.619 68.0045L325.618 68.0055L325.618 68.0061L325.618 68.0071L325.616 68.0111L325.614 68.0149C325.266 68.8075 324.898 69.6451 324.635 70.1179C324.462 70.4274 324.171 71.107 323.84 71.8812L323.84 71.882L323.839 71.883C323.401 72.9073 322.892 74.0968 322.493 74.8134L320.751 79.8489C320.09 82.3069 319.47 83.8455 319.109 84.7047C319.017 84.8712 319.126 85.0378 319.269 85.2568C319.591 85.7472 320.084 86.5002 318.867 88.1022C318.767 88.282 318.627 88.3219 318.448 88.2219L318.168 88.3017C317.188 88.5809 316.129 88.5802 315.31 88.3598C314.81 88.1996 314.371 87.7197 314.171 87.0201C313.632 86.7199 313.332 86.2001 313.193 85.1807C312.934 83.7415 312.956 81.1632 313.218 77.306C313.62 73.4089 314.061 70.711 314.602 68.8925L316.226 60.2594L316.147 59.9795C316.447 59.4401 316.667 58.6207 316.568 57.7413C316.317 57.9128 316.022 57.7004 315.811 57.5481C315.703 57.4698 315.616 57.4073 315.568 57.4209C315.037 57.8529 314.2 58.4298 313.043 59.2271C312.329 59.7198 311.492 60.2966 310.53 60.9754C309.76 61.5184 309.07 61.9962 308.464 62.4166L308.451 62.4252L308.448 62.4275L308.447 62.428L308.446 62.4284C307.076 63.3778 306.129 64.0341 305.631 64.49ZM297.395 67.4429C299.053 67.4239 299.992 68.0641 300.272 69.0436C300.551 70.0231 299.971 70.6423 298.711 71.0013C297.312 71.4002 295.572 74.3171 293.53 79.8921C291.487 85.4671 290.766 89.3041 291.364 91.403L292.003 92.5826C293.962 92.0242 296.122 88.9876 298.344 83.5126C300.666 77.8579 301.368 73.4213 300.591 70.163L300.511 69.8832C300.652 68.784 300.652 67.7247 300.293 66.4653C299.925 66.5704 299.295 66.7917 298.701 67.001L298.698 67.002L298.697 67.0024L298.696 67.0025C298.164 67.19 297.659 67.3676 297.395 67.4429ZM296.45 61.9741L296.451 61.9735L296.452 61.973L296.46 61.9693C296.966 61.7323 297.538 61.4646 298.178 61.1676C296.739 60.3673 295.74 60.0469 295.041 60.2463C294.761 60.3261 294.481 60.4058 294.381 60.5857C294.241 60.6255 294.101 60.6654 294.001 60.8452C293.781 61.6646 293.56 62.4839 293.62 63.2234C294.037 63.1044 294.956 62.6741 296.45 61.9741ZM250.693 101.842C250.603 101.925 250.543 101.98 250.473 102C250.053 102.119 249.874 102.019 249.894 101.56C250.315 99.3213 251.656 96.0643 253.677 92.0083C255.798 87.7725 257.519 85.3152 258.798 84.4965L258.998 84.1369L259.096 84.0146C259.816 83.11 260.238 82.5796 260.678 82.599C260.938 81.9196 262.038 81.0009 262.418 80.7413C262.455 80.6755 262.609 80.5963 262.805 80.496C263.144 80.3222 263.608 80.0848 263.798 79.7428C263.938 79.7029 264.118 79.803 264.297 79.903L264.417 80.3228C263.977 80.9021 263.377 81.981 262.576 83.4196C260.295 88.155 258.494 91.3917 257.274 92.9499C256.874 93.6691 255.974 95.2875 255.534 95.8668C254.472 97.1994 253.669 98.2399 253.096 98.9827L253.096 98.9835C252.406 99.8772 252.05 100.34 251.973 100.362L251.093 101.52C250.903 101.65 250.783 101.76 250.693 101.842ZM241.864 93.7115L241.324 93.4114C240.845 92.7915 240.585 92.4116 240.685 92.2318C240.645 92.0919 240.605 91.952 240.426 91.8519C240.086 91.1921 239.807 90.2126 239.588 88.9134L239.508 88.6335C239.389 88.2137 238.949 87.7338 238.23 87.3336C238.05 87.2336 236.191 88.6714 235.89 89.2109L233.089 94.2458C232.819 94.6014 232.534 95.3036 232.284 95.9175L232.284 95.9179L232.284 95.9184C232.127 96.3042 231.984 96.6551 231.868 96.8632C231.707 97.1536 231.49 97.6817 231.253 98.2583L231.253 98.2587C230.903 99.1102 230.509 100.067 230.187 100.52C230.117 100.54 230.092 100.585 230.067 100.63C230.042 100.675 230.017 100.719 229.947 100.739C229.006 103.277 228.246 104.856 227.946 105.395C227.618 105.985 227.272 106.97 226.808 108.294C226.564 108.989 226.288 109.777 225.964 110.65L224.562 115.286C224.468 115.455 224.567 115.627 224.7 115.858C224.992 116.367 225.447 117.16 224.36 118.824L223.94 118.943C223.76 118.843 223.62 118.883 223.34 118.963L222.921 119.083C222.081 119.322 221.302 119.242 220.762 118.941C220.123 118.821 219.683 118.341 219.484 117.642C219.164 117.581 218.825 116.922 218.506 115.802C217.868 112.504 218.291 107.088 219.915 99.5141L220.737 95.4973C220.997 94.8179 221.338 93.3591 221.318 92.7595L221.679 90.841L221.599 90.5611L222.641 86.7843L223.643 82.8676C223.763 82.2281 224.023 81.5487 224.323 81.0093C224.623 80.4698 225.103 80.0304 225.943 79.7911L227.762 79.2726C227.902 79.2327 228.082 79.3327 228.262 79.4328C228.941 79.693 229.401 79.7133 229.86 79.7336C230.46 79.7139 231.039 80.154 231.818 81.2937C231.998 81.3938 232.078 81.6736 231.938 81.7135C231.638 82.253 231.298 82.6525 231.118 82.5524C230.598 82.8519 229.998 83.9308 229.397 86.069C228.756 88.0673 228.415 89.5261 228.475 90.2656L228.075 90.9849L227.914 91.4844C227.854 91.8042 227.794 92.1239 227.974 92.224C228.014 92.3639 228.014 92.3639 227.914 92.5437L227.553 94.4622L227.232 95.4613C227.272 95.6013 227.312 95.7412 227.492 95.8412L227.772 95.7615L229.493 92.2449C231.274 88.4086 233.534 85.1921 236.454 82.6956L237.573 82.3765C238.413 82.1372 239.153 82.0777 239.652 82.2379C241.811 82.3792 243.329 83.4594 244.207 85.4785C244.507 85.9984 244.666 86.5581 244.686 87.1577C244.861 87.7711 244.989 89.4447 245.058 90.3463C245.067 90.473 245.076 90.5844 245.083 90.6756C245.063 91.1353 244.863 91.4949 244.623 91.7146C244.433 91.8444 244.213 92.1341 243.993 92.4237L243.993 92.4239C243.773 92.7135 243.553 93.0031 243.363 93.1329C243.303 93.4526 243.023 93.5324 242.843 93.4323L242.603 93.652C242.503 93.8318 242.363 93.8717 242.183 93.7717L241.864 93.7115ZM196.838 87.0283L196.279 87.1878C195.519 87.707 194.579 88.1261 193.32 88.4851C193.269 88.4997 193.174 88.5063 193.055 88.5145C192.849 88.5289 192.566 88.5485 192.3 88.6244L190.341 89.1828C189.362 89.462 189.162 89.8216 189.781 90.4016C190.593 91.8722 191.675 92.6994 193.052 92.9739C192.799 93.2601 192.553 93.5735 192.315 93.9152C191.51 94.9527 190.873 95.835 190.366 96.539L190.365 96.5396L190.365 96.5404C189.827 97.2861 189.433 97.8319 189.135 98.1503C188.413 99.0393 187.765 99.9698 187.133 100.878L187.133 100.878L187.133 100.879L187.132 100.879L187.132 100.879C186.785 101.378 186.442 101.871 186.094 102.346C186.034 102.665 185.834 103.025 185.594 103.245C183.734 105.742 182.594 107.58 181.933 108.979C181.862 109.106 181.822 109.073 181.74 109.008C181.707 108.98 181.666 108.948 181.613 108.918L180.635 107.079C180.216 106.139 179.198 104.16 178.499 103.3C177.361 101.961 176.522 101.141 175.942 100.7C175.483 100.68 175.263 100.44 175.223 100.3C174.384 99.4803 173.145 99.3796 171.606 99.8184C170.626 100.098 170.106 100.397 169.906 100.757C169.886 101.216 170.006 101.636 170.345 102.296C171.344 103.676 173.3 107.354 173.639 108.014L173.719 108.294C173.699 108.754 173.998 109.273 174.298 109.793C174.59 110.448 174.911 110.948 175.181 111.367C175.298 111.549 175.405 111.715 175.496 111.873C175.536 112.013 176.035 113.232 176.294 113.612L177.372 115.272C177.672 115.791 177.691 116.391 177.391 116.93C176.12 119.216 175.893 119.494 175.503 119.973C175.186 120.361 174.763 120.881 173.59 122.704C172.932 123.64 172.342 124.544 171.82 125.416C165.277 127.93 155.205 134.996 141.574 146.507C140.854 147.166 139.954 147.725 139.054 148.284L138.954 148.464L138.814 148.503C138.674 148.543 138.495 148.443 138.235 148.063C137.975 147.684 137.576 147.344 137.037 147.043C136.92 147.252 136.689 147.239 136.406 147.222C136.203 147.209 135.972 147.196 135.737 147.262C135.597 147.302 135.457 147.342 135.357 147.522C135.298 147.539 135.264 147.549 135.236 147.568C135.199 147.594 135.175 147.638 135.117 147.742L134.977 147.782C134.838 147.821 134.658 147.721 134.478 147.621C134.298 147.521 134.318 147.062 134.339 146.602C134.475 146.177 134.553 145.549 134.66 144.694C134.679 144.545 134.699 144.388 134.72 144.224C134.821 142.985 135.201 141.666 135.722 140.307C135.822 140.127 135.922 139.947 135.882 139.808L136.243 137.889L136.243 137.889C136.423 136.929 136.664 135.651 137.205 133.832L138.166 130.835C138.181 130.479 138.51 129.306 138.76 128.415L138.76 128.414C138.832 128.156 138.898 127.922 138.947 127.738C139.107 127.238 139.307 126.878 139.587 126.799C139.727 126.759 140.007 126.679 140.187 126.779C141.406 127.339 143.484 127.201 146.423 126.363C148.242 125.845 149.601 125.306 150.261 124.966C152.9 123.609 154.84 122.451 156.259 121.592C158.239 120.574 159.518 119.756 160.098 119.136C160.152 119.087 160.211 119.029 160.276 118.964C160.5 118.742 160.795 118.45 161.198 118.218C161.557 117.913 161.889 117.626 162.197 117.36C163.038 116.634 163.701 116.061 164.258 115.681C164.537 115.602 164.777 115.382 164.877 115.202C165.178 114.663 165.657 114.223 166.517 113.524L168.357 111.487L169.318 109.549C169.338 109.089 169.379 108.17 169.2 107.01C169.08 106.59 168.9 106.49 168.72 106.39L167.761 106.21L166.802 106.029L166.422 106.289C166.322 106.469 166.182 106.509 166.002 106.409C165.879 106.403 165.766 106.395 165.661 106.387C165.374 106.366 165.148 106.35 164.943 106.408L164.703 106.628L164.283 106.747C163.508 107.308 162.248 108.341 161.115 109.27L161.114 109.271L161.114 109.271C160.229 109.996 159.422 110.657 158.984 110.981C153.565 114.795 148.927 117.631 145.068 119.487L144.648 119.607L144.408 119.826C144.268 119.866 144.129 119.906 143.949 119.806C143.749 120.166 143.509 120.385 143.089 120.505L141.13 121.063C140.99 121.103 140.99 121.103 140.81 121.003C140.77 120.863 140.73 120.723 140.83 120.544C141.02 120.414 141.08 120.094 141.141 119.774C141.201 119.455 141.261 119.135 141.451 119.005C141.291 118.445 141.652 116.527 142.714 113.35C142.953 113.13 143.054 112.95 143.114 112.63C143.778 109.653 144.321 107.423 144.688 105.912C145.019 104.553 145.208 103.775 145.218 103.558C145.759 101.739 146.139 100.42 146.32 99.4612C146.34 99.0015 146.581 97.7225 146.881 97.1831C146.917 97.1173 146.962 96.8667 147.019 96.549C147.117 95.9987 147.251 95.247 147.442 94.905C147.474 94.8474 147.483 94.6569 147.496 94.4053C147.523 93.8707 147.564 93.0607 147.863 92.6667C147.901 91.7986 148.185 90.3207 148.426 89.0706C148.567 88.3349 148.693 87.6781 148.746 87.2709C149.086 85.8121 150.286 84.7136 152.385 84.1153C152.685 83.5759 154.745 81.7783 155.445 81.5789C155.492 81.5653 155.521 81.4866 155.557 81.3896C155.627 81.2021 155.722 80.9463 156.025 80.9597C156.094 80.9397 156.224 80.8649 156.419 80.7526C156.614 80.6403 156.874 80.4905 157.204 80.3208C157.644 79.7415 159.064 78.883 159.204 78.8431C159.784 78.2238 160.303 77.9244 160.823 77.6249L166.722 73.3714L168.722 71.8936C169.262 71.1345 170.301 70.5355 171.701 70.1367L172.661 69.2578C173.32 68.9185 173.56 68.6988 173.66 68.519C173.76 68.3391 174.04 68.2594 174.32 68.1796L174.88 68.0201C174.94 67.7003 175.04 67.5205 175.32 67.4407L175.88 67.2812C176.214 67.1859 176.79 66.806 177.341 66.4431C177.713 66.1979 178.073 65.9605 178.339 65.8237C179.878 65.3849 181.717 64.4067 183.857 62.8891C183.857 62.8891 184.197 62.4895 185.057 61.7905C185.211 61.7467 185.22 61.5157 185.23 61.2568C185.238 61.0445 185.247 60.8135 185.337 60.6515C185.437 60.4717 185.358 60.1918 185.138 59.9518C184.479 59.2319 183.939 58.9318 183.34 58.9514C183.268 58.9379 183.189 58.9264 183.102 58.9137C182.802 58.87 182.408 58.8125 181.881 58.6107C181.381 58.4505 180.922 58.4303 180.362 58.5898C177.144 59.5072 174.145 60.6646 171.686 62.1221C170.778 62.4723 169.153 63.415 167.918 64.1314C167.113 64.5986 166.473 64.9695 166.307 65.0168L163.228 66.9536L156.59 71.2666L155.11 72.4449C154.691 72.5645 153.931 73.0837 153.831 73.2635C153.716 73.3421 153.592 73.4372 153.456 73.541C153.144 73.78 152.771 74.0653 152.311 74.3019L147.552 77.7766C147.312 77.9963 147.032 78.0761 146.673 77.876L145.634 77.4157C144.255 77.3549 143.335 77.3143 143.156 77.2143C142.976 77.1142 142.836 77.1541 142.696 77.194C142.276 77.3137 142.216 77.6334 142.196 78.0931C142.189 78.2379 142.167 78.4324 142.139 78.6784C142.077 79.2129 141.988 79.9907 141.974 81.031C141.873 82.2701 138.634 84.7064 137.135 85.2851C136.834 85.8246 135.735 86.7433 133.595 88.2609L133.21 88.5042C131.264 89.7349 130.111 90.4645 129.716 90.577C129.436 90.6567 129.336 90.8365 129.416 91.1164C129.775 92.3758 129.975 93.0754 130.154 93.1755C131.852 95.415 133.19 96.3952 134.03 96.1559C136.269 95.5177 138.008 94.7193 139.068 93.6607C139.208 93.6208 139.348 93.5809 139.528 93.6809L139.608 93.9608C139.506 94.3372 139.409 94.6166 139.338 94.8223L139.338 94.8225C139.254 95.0643 139.205 95.204 139.227 95.2796C139.068 95.8305 138.86 96.7649 138.645 97.7289L138.645 97.7294C138.346 99.0733 138.034 100.475 137.824 100.975C137.645 101.598 137.429 102.568 137.224 103.491L137.224 103.491C136.995 104.522 136.78 105.492 136.642 105.851L133.998 115.683L131.975 122.917L128.83 134.707C128.686 135.301 128.548 135.87 128.415 136.416L128.414 136.417C127.711 139.304 127.172 141.52 126.986 143.1C126.565 145.338 126.623 147.137 127.202 148.636C127.681 150.315 130.277 153.055 132.016 153.316C132.196 153.416 132.455 153.796 132.036 153.916L127.617 156.991C127.49 157.077 127.25 157.179 126.97 157.298C126.411 157.536 125.691 157.842 125.397 158.229C125.186 158.608 124.881 158.509 124.476 158.378C124.112 158.26 123.668 158.116 123.139 158.267C122.922 158.329 122.696 158.28 122.42 158.22C121.982 158.124 121.418 158.001 120.561 158.246L120.001 158.405C119.621 158.665 119.221 159.384 119.401 159.484C119.66 159.864 120.04 160.664 120.079 160.804C121.697 163.823 125.793 164.924 129.151 163.967C131.25 163.369 133.749 162.051 136.609 159.874C144.787 154.063 149.086 150.568 149.686 149.49C149.887 149.13 150.227 148.73 150.746 148.431C150.846 148.251 151.706 147.552 153.566 146.114L160.825 140.263L162.824 138.785L163.384 138.625C163.664 138.546 163.804 138.506 163.904 138.326C164.361 137.505 166.302 136.134 169.484 134.168C169.651 134.429 169.859 134.671 170.105 134.894C170.605 135.054 170.864 135.434 171.124 135.814C171.323 136.513 172.103 136.594 173.642 136.155L174.062 136.035C174.242 136.136 174.561 136.196 174.981 136.076L175.681 135.877C176.061 135.617 176.161 135.437 176.041 135.017C175.762 134.038 175.842 133.258 176.242 132.539C176.509 131.791 176.969 130.866 177.576 129.739C177.598 129.732 177.619 129.726 177.64 129.72C177.78 129.68 178.06 129.6 178.16 129.421L178.999 129.181C179.319 129.241 179.739 129.122 180.438 128.922C181.698 128.563 182.218 128.264 182.238 127.804C181.879 126.545 181.54 125.885 181.32 125.645C181.04 125.489 180.785 125.37 180.553 125.28C181.032 124.732 181.504 124.14 182.244 122.809C182.405 122.31 182.684 122.23 182.944 122.61L183.883 123.25C185.62 125.63 189.257 127.77 191.635 127.092C192.055 126.973 192.195 126.933 192.375 127.033C192.555 127.133 192.835 127.053 193.254 126.933C193.464 126.874 193.749 126.679 194.034 126.484C194.319 126.29 194.604 126.095 194.814 126.035C195.004 125.905 195.124 125.795 195.214 125.713C195.304 125.631 195.364 125.576 195.434 125.556C195.814 125.296 196.294 124.857 196.794 123.958C197.094 123.418 197.114 122.959 196.615 122.798C196.603 122.427 196.33 121.955 196.095 121.551C195.951 121.302 195.822 121.079 195.776 120.919C195.876 120.739 195.697 120.639 195.517 120.539C195.218 119.959 193.792 119.935 193.139 119.923C193.05 119.922 192.975 119.92 192.919 119.918L191.539 120.916C190.54 121.655 190.02 121.955 189.88 121.995C189.46 122.114 189.28 122.014 189.66 121.755C187.823 119.555 186.604 117.935 186.045 117.036C185.826 116.796 186.027 114.318 186.327 113.778C186.477 113.508 186.877 113.319 187.277 113.129C187.677 112.939 188.077 112.75 188.227 112.48C188.587 111.621 189.087 110.722 189.627 109.963L191.308 107.365C191.808 106.466 192.248 105.887 192.588 105.488L196.269 100.353C196.679 99.9338 197.134 99.2745 197.589 98.6152C198.044 97.956 198.499 97.2967 198.909 96.8772C199.283 96.6447 199.651 96.2046 200.033 95.7469L200.033 95.7468C200.57 95.1043 201.135 94.4271 201.789 94.2408C202.069 94.161 202.169 93.9812 202.089 93.7013C201.857 93.0177 201.563 92.4444 201.21 91.981C201.279 91.9629 201.345 91.9453 201.407 91.9284C201.458 91.9145 201.506 91.9009 201.552 91.8879L202.532 91.6087C203.06 91.4133 203.551 91.2284 203.998 91.0599L203.999 91.0598L204 91.0594C205.06 90.6601 205.878 90.3522 206.37 90.212C206.79 90.0923 206.969 90.1924 206.949 90.6521L206.749 91.0117C205.868 93.2297 205.007 97.1065 204.084 102.362C204.104 102.962 203.803 104.561 203.503 105.1C203.377 105.609 203.248 106.42 203.12 107.223L203.12 107.223C202.961 108.218 202.804 109.201 202.66 109.577L201.916 117.051C201.908 117.237 201.877 117.43 201.844 117.633C201.796 117.932 201.744 118.253 201.755 118.61C201.867 119.332 201.839 120.799 201.816 121.981C201.802 122.697 201.79 123.308 201.812 123.587L201.752 124.966C201.827 125.23 201.896 125.777 201.976 126.406V126.406L201.976 126.407C202.108 127.442 202.268 128.699 202.528 129.283C202.768 130.123 202.927 130.683 202.907 131.142C203.002 131.474 203.184 131.782 203.404 132.153L203.405 132.155L203.405 132.155C203.463 132.252 203.524 132.354 203.586 132.462C203.705 132.882 203.885 132.982 204.185 132.442L204.405 132.682C204.345 133.002 204.285 133.322 204.325 133.462C205.243 134.561 206.322 135.162 207.221 135.662C207.389 135.36 207.745 135.384 208.198 135.414C208.554 135.438 208.969 135.466 209.4 135.343C209.54 135.304 209.68 135.264 209.86 135.364C210.139 135.284 210.2 134.964 210.22 134.505C210.1 134.085 210.06 133.945 209.881 133.845C209.731 133.585 209.556 133.105 209.382 132.626L209.382 132.625L209.382 132.625C209.207 132.145 209.032 131.666 208.883 131.406L208.643 130.566C208.784 129.467 208.566 127.108 208.446 126.689C208.655 112.558 211.041 99.1688 215.646 86.6601L215.706 86.3404C215.846 86.3005 215.846 86.3005 215.806 86.1606C215.786 85.561 216.087 85.0215 216.746 84.6821L225.164 79.7107C226.663 79.132 227.563 78.5729 227.803 78.3532C229.502 77.4149 231.102 76.6564 232.501 76.2575C232.921 76.1379 233.201 76.0581 233.38 76.1582L234.5 75.8391C235.819 75.1603 236.32 74.2613 236 73.1418C235.661 72.482 235.262 72.142 234.522 72.2015L233.843 71.9413C232.024 71.4005 229.945 71.5392 227.847 72.1375C227.316 72.2888 226.427 72.5867 225.612 72.8595L225.612 72.8596L225.612 72.8597C224.923 73.0902 224.289 73.3029 223.968 73.3942C222.409 74.2926 220.949 75.0113 219.41 75.45C219.36 75.5399 219.335 75.5849 219.3 75.5948C219.265 75.6048 219.22 75.5798 219.13 75.5298C218.671 75.5095 218.491 75.4095 218.591 75.2297L218.771 74.2704C219.032 73.591 220.153 70.0941 220.494 68.6353C221.475 65.1782 222.376 62.5006 222.957 60.8221C223.618 58.3641 224.379 55.7264 225.46 53.1488L226.299 52.9095C226.999 52.71 227.199 52.3504 227.219 51.8907C227.28 51.5711 227.58 51.0318 228.08 50.133L228.08 50.1328L228.08 50.1327L228.08 50.1324C228.421 48.6736 228.481 47.2946 227.983 46.0751C227.824 44.4561 226.625 43.4361 224.207 42.9149C223.348 42.5546 222.428 42.5141 221.589 42.7534C220.609 43.0326 220.309 43.5721 220.588 44.5516L220.368 45.3709L219.107 48.9077C218.405 52.285 217.424 55.7421 216.162 59.2789C215.922 59.7112 215.71 60.6271 215.523 61.4367L215.523 61.4368L215.522 61.4375C215.398 61.9747 215.285 62.465 215.181 62.736C214.781 63.4552 214.581 63.8149 214.621 63.9548L213.939 66.8724C212.478 70.7689 211.276 75.0453 210.054 79.7813C209.794 80.4607 209.593 80.8203 209.314 80.9001C208.984 81.0698 208.724 81.2195 208.529 81.3318L208.529 81.332L208.528 81.3323L208.528 81.3323C208.334 81.4443 208.204 81.519 208.134 81.5389C207.828 81.5254 207.628 81.8851 207.487 82.1382C207.416 82.2647 207.361 82.3646 207.314 82.3779C205.815 82.9566 204.115 83.8949 202.036 85.0928C200.856 85.7316 199.217 86.3502 196.838 87.0283ZM88.866 125.673L89.2858 125.553C89.5859 125.014 90.3856 124.634 91.645 124.275C92.3447 124.076 93.4236 124.676 94.8817 126.076C96.3 127.336 97.0787 128.476 97.3579 129.455C97.7771 130.395 97.9563 131.554 97.8954 132.933C99.315 132.075 101.075 130.817 103.034 129.199C104.394 128.136 105.548 127.168 106.505 126.364C108.336 124.828 109.447 123.896 109.893 124.067C111.072 124.487 109.75 128.344 107.931 129.922C104.991 132.878 101.332 135.434 97.2331 137.51C96.5118 140.288 95.2106 143.684 93.4693 147.661C91.6882 151.497 90.1077 153.914 88.4083 154.853C88.3083 155.033 88.2082 155.212 88.0683 155.252C87.6582 155.285 87.002 155.761 86.3795 156.211C85.8794 156.574 85.4009 156.92 85.0892 157.009C80.4715 158.325 75.7767 155.125 73.9209 150.207C73.2625 148.428 73.3841 145.67 74.3257 142.073C74.4693 141.381 74.644 140.687 74.8487 139.992C74.5244 140.011 74.1811 140.027 73.8345 140.042C72.7018 140.093 71.5348 140.145 70.8866 140.33C70.4668 140.449 70.2268 140.669 69.9267 141.208C66.2643 149.061 63.9031 153.516 63.1629 154.635C57.9613 162.926 54.2205 168.38 51.8404 171.177C47.4201 176.371 41.7405 181.924 34.9016 187.655C28.1026 193.527 22.3242 197.141 17.4267 198.537C10.5701 200.492 7.45306 199.111 2.71962 193.652C1.94085 192.512 1.26212 191.192 0.783483 189.513C-0.532778 184.895 1.22943 179.4 6.21002 172.988C6.51009 172.566 7.00148 171.996 7.62936 171.268C8.13165 170.686 8.7213 170.002 9.37022 169.212C10.9703 167.394 12.0505 165.876 12.6906 164.937C12.9908 164.398 13.7107 163.739 14.6706 162.86C16.3301 161.781 17.2102 160.623 17.411 159.204C17.5319 157.505 17.753 155.626 18.1538 153.848C18.4539 153.308 18.4343 152.709 18.4147 152.109L18.6756 150.371C19.3366 147.913 19.8977 145.635 20.139 143.296C21.5814 137.741 22.8238 132.545 23.766 127.889L25.4086 121.974C26.2697 119.156 26.6307 117.238 26.8111 116.279L26.6117 115.579L26.5117 115.759C26.4417 115.779 26.3817 115.834 26.2917 115.916C26.2017 115.998 26.0817 116.108 25.8918 116.238C17.0317 126.026 12.1309 132.718 9.46634 143.01C9.23699 143.609 9.19351 144.859 9.17254 145.463C9.16972 145.544 9.1673 145.613 9.1649 145.668C9.0047 146.167 8.80461 146.527 8.38482 146.647C7.40531 146.926 6.32641 146.326 5.00819 144.886C3.68997 143.446 2.87131 142.166 2.5921 141.187C1.91402 138.808 2.99554 135.171 5.69671 130.316C11.4803 118.228 20.0206 108.38 31.0378 100.852C36.2564 97.3972 40.3549 95.3211 43.4334 94.4436C47.7712 93.2071 51.2492 92.6696 53.5875 92.9109C57.3048 93.213 61.281 94.9543 65.4763 97.9948C69.6317 100.895 72.4474 104.934 73.8833 109.972C75.5585 115.849 75.2139 123.664 72.7495 133.595L72.8292 133.875L72.7089 134.515C72.7887 134.795 72.8286 134.934 73.0084 135.034L73.5478 135.335L75.1263 136.095C75.4944 136.244 75.8201 136.395 76.1055 136.55C76.7799 135 77.5976 133.459 78.5491 131.942C80.5899 128.486 83.0295 126.429 85.8281 125.631C86.9475 125.312 87.6871 125.252 88.0866 125.592C88.2664 125.692 88.5862 125.752 88.866 125.673ZM81.6151 151.191C81.7348 151.611 81.9545 151.851 82.3743 151.731C84.7145 148.794 86.8357 144.559 88.458 139.103C87.179 138.863 85.9602 138.302 84.7616 137.282C84.621 138.381 83.5206 140.359 83.2204 140.899C82.3194 143.577 81.7583 145.855 81.3974 147.773C81.2505 148.319 81.4053 149.452 81.5187 150.283C81.5755 150.698 81.6219 151.038 81.6151 151.191ZM90.4818 130.81L90.2823 130.111C90.2424 129.971 90.0626 129.871 89.7828 129.95L88.0225 132.268C88.3213 133.847 88.7405 134.786 89.5997 135.147C89.82 134.327 90.3412 131.909 90.4818 130.81ZM36.3303 107.211C40.8094 103.816 45.7076 101.36 51.1649 99.8048C60.1204 97.252 65.3155 99.5537 67.8682 108.509C67.7682 108.689 67.8878 109.109 68.0075 109.529L68.0075 109.529L68.4253 112.587C68.9635 115.006 68.681 119.322 67.3981 125.438C66.1152 131.553 64.914 134.77 63.9345 135.049C63.1263 135.279 61.7559 135.586 60.4543 135.878C59.277 136.142 58.156 136.393 57.5579 136.564C50.2815 138.638 41.8046 142.87 32.0873 149.12C31.3877 149.319 30.2878 150.238 29.8079 150.677C29.088 151.336 28.2883 151.716 27.3088 151.995C26.8491 151.975 26.6693 151.875 26.6294 151.735C26.4299 151.035 27.312 146.698 29.2756 138.725C31.2392 130.752 32.6215 125.516 33.4225 123.018L33.4827 122.698L35.5855 115.744C36.5873 111.828 37.0882 109.869 37.0483 109.729C36.8488 109.03 36.5494 108.51 36.2898 108.13L36.3303 107.211ZM25.9892 185.052L25.7094 185.132C25.3497 184.931 25.13 184.691 25.0503 184.412C24.1525 181.793 23.855 178.095 23.7981 173.118C23.7412 168.142 24.6226 164.864 26.1625 163.366C29.6222 160.111 34.8611 156.197 42.0989 151.864C49.4367 147.352 55.1346 144.517 59.1926 143.36C59.6124 143.241 59.9321 143.301 60.1119 143.401L60.4513 144.061C52.6276 158.546 42.7266 171.051 30.5481 181.937C28.6283 183.694 27.1087 184.733 25.9892 185.052ZM21.4507 187.707L20.5908 188.406C18.8508 190.264 15.552 191.961 10.9343 193.277C9.25515 193.756 8.15598 193.615 7.49687 192.895C7.11827 191.036 7.53937 188.798 8.68039 185.9C9.86129 183.143 11.0219 180.845 12.2022 179.147C12.5684 178.665 12.9239 178.186 13.2732 177.715C14.1833 176.489 15.0522 175.318 15.9626 174.293L16.1425 174.393C16.3223 174.493 16.542 174.733 16.5819 174.873C16.5603 177.451 16.799 179.35 17.1579 180.609C17.6765 182.428 18.7547 184.088 20.3927 185.588C20.8924 185.967 21.1839 186.406 21.4211 186.764C21.4589 186.821 21.4954 186.875 21.5311 186.928L21.4507 187.707Z" fill="#FFD401"/>
</svg>
